<svg width="426" height="570" viewBox="0 0 426 570" fill="none" xmlns="http://www.w3.org/2000/svg">
<g filter="url(#filter0_dd)">
<path d="M411.4 7.8C406.4 12 393.6 22.7 382.9 31.6C353.3 56.1 296.5 103 279.5 117C266.1 128 197.7 184.5 158.5 217C150.8 223.4 131.9 239 116.5 251.7C54.5 302.9 21.3 330.4 17.2 333.9L13 337.5V375.5C13 396.4 13 413.8 13 414.2C13 414.7 17.2 411.5 22.3 407.2C33 398.3 88.5 352.5 103.4 340.2C109 335.6 119.1 327.2 126 321.5C132.9 315.8 152 299.9 168.5 286.3C202.5 258.3 233.5 232.6 264.4 207.1C276 197.5 288.7 187.1 292.5 183.9C296.4 180.7 305.4 173.3 312.5 167.3C319.7 161.4 334.1 149.5 344.4 141C354.8 132.5 366.5 122.8 370.4 119.5C374.3 116.1 386.5 106 397.5 97C408.5 87.9 418.5 79.6 419.7 78.4C421.8 76.3 421.8 75.8 422 38.1C422 17.2 421.7 -9.15676e-06 421.3 0.0999908C420.9 0.0999908 416.4 3.6 411.4 7.8Z" fill="black"/>
<path d="M411.4 7.8C406.4 12 393.6 22.7 382.9 31.6C353.3 56.1 296.5 103 279.5 117C266.1 128 197.7 184.5 158.5 217C150.8 223.4 131.9 239 116.5 251.7C54.5 302.9 21.3 330.4 17.2 333.9L13 337.5V375.5C13 396.4 13 413.8 13 414.2C13 414.7 17.2 411.5 22.3 407.2C33 398.3 88.5 352.5 103.4 340.2C109 335.6 119.1 327.2 126 321.5C132.9 315.8 152 299.9 168.5 286.3C202.5 258.3 233.5 232.6 264.4 207.1C276 197.5 288.7 187.1 292.5 183.9C296.4 180.7 305.4 173.3 312.5 167.3C319.7 161.4 334.1 149.5 344.4 141C354.8 132.5 366.5 122.8 370.4 119.5C374.3 116.1 386.5 106 397.5 97C408.5 87.9 418.5 79.6 419.7 78.4C421.8 76.3 421.8 75.8 422 38.1C422 17.2 421.7 -9.15676e-06 421.3 0.0999908C420.9 0.0999908 416.4 3.6 411.4 7.8Z" fill="black" fill-opacity="0.2"/>
</g>
<g filter="url(#filter1_d)">
<path d="M87.3999 84.8L68.4999 100.6L67.9999 131.6L67.4999 162.7L64.4999 165.2C49.0999 178.2 45.2999 181.2 44.2999 181.7C43.0999 182.2 35.6999 177.2 33.2999 174.1C31.6999 172.3 31.3999 88.5 32.8999 87.5C33.3999 87.2 36.7999 89.5 40.4999 92.6C45.5999 97 47.4999 98 48.8999 97.4C51.0999 96.3 66.8999 83.7 66.8999 83C66.8999 82.4 52.4999 70.7 51.1999 70.2C50.6999 70.1 46.8999 72.8 42.7999 76.2C38.5999 79.7 30.0999 86.8 23.7999 92.1L12.3999 101.7L8.79992 111.1C6.79992 116.3 4.79992 121.3 4.39992 122.4C3.49992 124.7 11.7999 118.5 21.9999 109.2C27.4999 104.2 30.1999 103.6 26.7999 108.1C25.4999 109.8 21.8999 114.9 18.7999 119.4L12.9999 127.5V158.5V189.5L21.0999 196C25.5999 199.6 30.4999 203.5 31.9999 204.7L34.6999 206.9L51.5999 192.9C60.8999 185.2 71.3999 176.4 74.8999 173.4C78.3999 170.4 81.4999 168.1 81.6999 168.4C82.0999 168.8 78.2999 174.2 70.0999 185C68.5999 187 68.0999 189.6 67.8999 197.3C67.6999 202.6 67.5999 207 67.7999 207C68.2999 207 85.4999 192.6 86.1999 191.5C86.5999 191 86.9999 184.4 86.9999 177V163.5L95.7999 156.3C100.6 152.4 104.9 149.2 105.3 149.3C105.8 149.4 106.1 162.4 106 178.2C106 194.1 106.2 207 106.5 207C107 207 136.5 182.8 149.8 171.4C155.5 166.5 158 165.1 158 166.5C158 166.8 156.5 168.7 154.7 170.7C152.9 172.8 149.3 177.6 146.7 181.3C142 188.1 142 188.1 142 196.5C142 201.2 142.3 205 142.8 204.9C143.2 204.9 147.6 201.4 152.5 197.1L161.5 189.3L162 175.1L162.5 161L181 145.7L199.5 130.5L200 108.7C200.3 96.8 200.3 86.5 200.2 86C200 85.4 195.6 81.4 190.4 77L180.9 69L171.7 76.7C166.6 80.9 157.9 88.2 152.3 92.8L142 101.3V131.4L141.9 161.5L134.5 167.7C130.4 171.2 126.8 174 126.5 174C126.2 174 126 172.9 126 171.5C126 169.7 126.5 169 128 169C130 169 130 168.3 130 128.5C130 102.2 129.7 88 129 88C128.5 88 128 89.1 128 90.5C128 91.9 127.6 93 127 93C126.5 93 126 91.2 126 89.1C126 86.1 125.4 84.7 123.6 83.3C122.3 82.3 117.9 78.7 113.7 75.3L106.2 69.1L87.3999 84.8ZM99.2999 95L106 100.5L105.8 115.9L105.5 131.4L96.9999 138.6C92.2999 142.6 88.1999 145.9 87.7999 146C87.2999 146 86.9999 139 86.9999 130.5C86.9999 120.8 87.3999 115 87.9999 115C88.5999 115 88.9999 120 88.9999 128C88.9999 135.7 89.3999 141 89.9999 141C91.1999 141 91.8999 93.5 90.6999 91.4C90.1999 90.6 89.4999 90.2 88.9999 90.5C87.7999 91.3 86.6999 89.2 87.3999 87.4C88.0999 85.7 87.2999 85.2 99.2999 95ZM172 93.5L181 101V115V128.9L175.4 133.7C172.3 136.3 168.4 139.7 166.6 141.2C164.9 142.7 163.2 144 162.8 144C161.6 144 160.9 133.6 161.4 122C161.6 115.7 161.9 105 161.9 98.2C162 91.5 162.2 86 162.5 86C162.7 86 167 89.4 172 93.5ZM88.9999 95.4C88.9999 97.3 88.5999 99.2 87.9999 99.5C87.3999 99.9 86.9999 98.5 86.9999 96.1C86.9999 93.8 87.4999 92 87.9999 92C88.5999 92 88.9999 93.5 88.9999 95.4ZM127.6 166.8C126.5 167.8 126.1 166.4 126.8 164L127.5 161.5L127.8 163.8C128 165.1 127.9 166.4 127.6 166.8Z" fill="black"/>
<path d="M87.3999 84.8L68.4999 100.6L67.9999 131.6L67.4999 162.7L64.4999 165.2C49.0999 178.2 45.2999 181.2 44.2999 181.7C43.0999 182.2 35.6999 177.2 33.2999 174.1C31.6999 172.3 31.3999 88.5 32.8999 87.5C33.3999 87.2 36.7999 89.5 40.4999 92.6C45.5999 97 47.4999 98 48.8999 97.4C51.0999 96.3 66.8999 83.7 66.8999 83C66.8999 82.4 52.4999 70.7 51.1999 70.2C50.6999 70.1 46.8999 72.8 42.7999 76.2C38.5999 79.7 30.0999 86.8 23.7999 92.1L12.3999 101.7L8.79992 111.1C6.79992 116.3 4.79992 121.3 4.39992 122.4C3.49992 124.7 11.7999 118.5 21.9999 109.2C27.4999 104.2 30.1999 103.6 26.7999 108.1C25.4999 109.8 21.8999 114.9 18.7999 119.4L12.9999 127.5V158.5V189.5L21.0999 196C25.5999 199.6 30.4999 203.5 31.9999 204.7L34.6999 206.9L51.5999 192.9C60.8999 185.2 71.3999 176.4 74.8999 173.4C78.3999 170.4 81.4999 168.1 81.6999 168.4C82.0999 168.8 78.2999 174.2 70.0999 185C68.5999 187 68.0999 189.6 67.8999 197.3C67.6999 202.6 67.5999 207 67.7999 207C68.2999 207 85.4999 192.6 86.1999 191.5C86.5999 191 86.9999 184.4 86.9999 177V163.5L95.7999 156.3C100.6 152.4 104.9 149.2 105.3 149.3C105.8 149.4 106.1 162.4 106 178.2C106 194.1 106.2 207 106.5 207C107 207 136.5 182.8 149.8 171.4C155.5 166.5 158 165.1 158 166.5C158 166.8 156.5 168.7 154.7 170.7C152.9 172.8 149.3 177.6 146.7 181.3C142 188.1 142 188.1 142 196.5C142 201.2 142.3 205 142.8 204.9C143.2 204.9 147.6 201.4 152.5 197.1L161.5 189.3L162 175.1L162.5 161L181 145.7L199.5 130.5L200 108.7C200.3 96.8 200.3 86.5 200.2 86C200 85.4 195.6 81.4 190.4 77L180.9 69L171.7 76.7C166.6 80.9 157.9 88.2 152.3 92.8L142 101.3V131.4L141.9 161.5L134.5 167.7C130.4 171.2 126.8 174 126.5 174C126.2 174 126 172.9 126 171.5C126 169.7 126.5 169 128 169C130 169 130 168.3 130 128.5C130 102.2 129.7 88 129 88C128.5 88 128 89.1 128 90.5C128 91.9 127.6 93 127 93C126.5 93 126 91.2 126 89.1C126 86.1 125.4 84.7 123.6 83.3C122.3 82.3 117.9 78.7 113.7 75.3L106.2 69.1L87.3999 84.8ZM99.2999 95L106 100.5L105.8 115.9L105.5 131.4L96.9999 138.6C92.2999 142.6 88.1999 145.9 87.7999 146C87.2999 146 86.9999 139 86.9999 130.5C86.9999 120.8 87.3999 115 87.9999 115C88.5999 115 88.9999 120 88.9999 128C88.9999 135.7 89.3999 141 89.9999 141C91.1999 141 91.8999 93.5 90.6999 91.4C90.1999 90.6 89.4999 90.2 88.9999 90.5C87.7999 91.3 86.6999 89.2 87.3999 87.4C88.0999 85.7 87.2999 85.2 99.2999 95ZM172 93.5L181 101V115V128.9L175.4 133.7C172.3 136.3 168.4 139.7 166.6 141.2C164.9 142.7 163.2 144 162.8 144C161.6 144 160.9 133.6 161.4 122C161.6 115.7 161.9 105 161.9 98.2C162 91.5 162.2 86 162.5 86C162.7 86 167 89.4 172 93.5ZM88.9999 95.4C88.9999 97.3 88.5999 99.2 87.9999 99.5C87.3999 99.9 86.9999 98.5 86.9999 96.1C86.9999 93.8 87.4999 92 87.9999 92C88.5999 92 88.9999 93.5 88.9999 95.4ZM127.6 166.8C126.5 167.8 126.1 166.4 126.8 164L127.5 161.5L127.8 163.8C128 165.1 127.9 166.4 127.6 166.8Z" fill="black" fill-opacity="0.2"/>
</g>
<path d="M163.7 90.7C162.9 92.3 164.3 140.2 165.1 138.9C166.3 137 166.3 91.3 165.1 90.5C164.6 90.2 164 90.3 163.7 90.7Z" fill="black"/>
<path d="M61.4999 90.3C58.0999 93.2 53.9999 96.7 52.1999 98.2C50.2999 99.7 49.1999 101.4 49.4999 102C50.1999 103.1 69.9999 87.5 69.9999 85.9C69.9999 83.9 67.1999 85.4 61.4999 90.3Z" fill="black"/>
<path d="M202.6 103.7C202.7 112.4 202.4 122.3 202.1 125.7L201.5 131.9L193.9 138.2C189.7 141.7 181.9 148.1 176.5 152.5C171.1 156.9 165.9 161.3 164.9 162.2C163.4 163.6 163.2 165.6 163.4 177.2L163.7 190.5L159.6 194.3C157.3 196.4 152.5 200.4 148.8 203.3C145 206.1 142 209 142 209.7C142 210.4 142.2 211 142.5 211C142.8 211 148.2 206.7 154.5 201.5L166 191.9V178V164L174.8 156.8C179.6 152.8 188.2 145.7 193.8 141.1L204 132.7V110.3C204 98.1 203.7 88 203.3 88C202.8 88 202.6 95.1 202.6 103.7Z" fill="black"/>
<path d="M34.1 131.5C34.1 156.1 34.5 172.2 35 172.5C35.6 172.9 36 157.9 36 132.1C36 106.4 35.6 91 35 91C34.4 91 34.1 106.2 34.1 131.5Z" fill="black"/>
<g filter="url(#filter2_d)">
<path d="M414.9 98.7C411.9 101.4 403.4 108.4 396 114.5C388.7 120.5 374.5 132.3 364.6 140.5C340.5 160.5 326.4 172.1 271.1 217.8C225 255.9 210.1 268.2 162.1 307.9C135.3 330 129.8 334.6 108 352.6C35.6 412.4 16.5 428.3 16.5 429C16.5 429.4 22.4 434.6 29.5 440.5C49.4 457 54.2 461.1 58.2 464.9L61.9 468.3L70.3 461.4C79.9 453.5 162.9 384.9 182.5 368.7C189.6 362.8 198.7 355.3 202.5 352.1C206.4 349 217.4 339.9 227 331.9C236.6 323.9 261.6 303.2 282.5 286C303.4 268.7 329.5 247.1 340.5 238C351.5 228.9 369.7 213.8 381 204.5C392.3 195.2 406 183.9 411.5 179.3L421.6 171L421.7 132.5C421.8 111.3 421.5 94 421.1 94C420.7 94 417.9 96.1 414.9 98.7Z" fill="black"/>
<path d="M414.9 98.7C411.9 101.4 403.4 108.4 396 114.5C388.7 120.5 374.5 132.3 364.6 140.5C340.5 160.5 326.4 172.1 271.1 217.8C225 255.9 210.1 268.2 162.1 307.9C135.3 330 129.8 334.6 108 352.6C35.6 412.4 16.5 428.3 16.5 429C16.5 429.4 22.4 434.6 29.5 440.5C49.4 457 54.2 461.1 58.2 464.9L61.9 468.3L70.3 461.4C79.9 453.5 162.9 384.9 182.5 368.7C189.6 362.8 198.7 355.3 202.5 352.1C206.4 349 217.4 339.9 227 331.9C236.6 323.9 261.6 303.2 282.5 286C303.4 268.7 329.5 247.1 340.5 238C351.5 228.9 369.7 213.8 381 204.5C392.3 195.2 406 183.9 411.5 179.3L421.6 171L421.7 132.5C421.8 111.3 421.5 94 421.1 94C420.7 94 417.9 96.1 414.9 98.7Z" fill="black" fill-opacity="0.2"/>
</g>
<path d="M8.09996 123.4C1.69996 128.7 -0.700044 131.6 0.399956 132.7C0.999956 133.3 2.89996 131.9 10.3 125C14.2 121.5 16.7 117.9 15.3 118.1C14.9 118.1 11.6 120.5 8.09996 123.4Z" fill="black"/>
<path d="M95.8 159.6L89 165.2V178.9V192.6L79.3 200.6C68 209.8 67 210.8 67 212.2C67 213.9 68.5 212.8 80 203.5L91 194.5V180.8V167.1L97.5 161.8C101.1 159 104 156 104 155.3C104 153.2 102.8 153.8 95.8 159.6Z" fill="black"/>
<path d="M124.3 195.6C109 208.1 104 213 106.4 213C106.7 213 115.1 206.2 125 197.9C140.5 185 144.6 181 142.5 181C142.3 181 134.1 187.6 124.3 195.6Z" fill="black"/>
<path d="M52.8 195.1C44.1 202.3 37 208.6 37 209.1C37 209.6 37.6 210 38.3 210C40.3 210 65.3 188.5 67.3 185.1C68.3 183.4 69 182 68.8 182C68.6 182 61.4 187.9 52.8 195.1Z" fill="black"/>
<g filter="url(#filter3_d)">
<path d="M349.5 246.7C334.7 259 312.4 277.5 300 287.8C287.6 298 269.9 312.8 260.5 320.5C251.2 328.3 214.9 358.2 180 387C145.1 415.9 112.4 442.9 107.5 447C102.5 451.1 92.7 459.2 85.7 465C78.7 470.7 73 475.9 73 476.5C73 477 74.6 478.6 76.4 480C78.3 481.4 87.8 489.2 97.6 497.5C107.4 505.7 116.2 513.1 117.2 513.8C119.2 515.2 114.8 518.7 182.5 462.6C201.8 446.6 224.9 427.5 234 420C272.5 388.2 345.2 328.1 367.8 309.3L378 300.8V262.4C378 241.3 377.7 224 377.3 224.1C376.8 224.1 364.4 234.3 349.5 246.7Z" fill="black"/>
<path d="M349.5 246.7C334.7 259 312.4 277.5 300 287.8C287.6 298 269.9 312.8 260.5 320.5C251.2 328.3 214.9 358.2 180 387C145.1 415.9 112.4 442.9 107.5 447C102.5 451.1 92.7 459.2 85.7 465C78.7 470.7 73 475.9 73 476.5C73 477 74.6 478.6 76.4 480C78.3 481.4 87.8 489.2 97.6 497.5C107.4 505.7 116.2 513.1 117.2 513.8C119.2 515.2 114.8 518.7 182.5 462.6C201.8 446.6 224.9 427.5 234 420C272.5 388.2 345.2 328.1 367.8 309.3L378 300.8V262.4C378 241.3 377.7 224 377.3 224.1C376.8 224.1 364.4 234.3 349.5 246.7Z" fill="black" fill-opacity="0.2"/>
</g>
<g filter="url(#filter4_d)">
<path d="M321.4 363.9C313.1 370.8 296.5 384.6 284.5 394.5C272.5 404.4 255.8 418.1 247.5 425C239.3 431.9 224.6 444 215 452C205.4 459.9 191.2 471.6 183.5 478C175.8 484.4 160.3 497.2 149.2 506.4C129.7 522.6 128.9 523.4 130.7 525C135.1 529.1 174.8 562 175.4 562C175.7 562 182.6 556.5 190.7 549.7C208.5 534.9 228.5 518.4 252 499C261.6 491 278.7 476.9 290 467.6C301.3 458.2 315.7 446.3 322 441.2C328.3 436 334.5 430.6 335.8 429.3L338 426.9L337.9 389.4C337.8 368.8 337.5 351.8 337.1 351.6C336.8 351.4 329.7 357 321.4 363.9Z" fill="black"/>
<path d="M321.4 363.9C313.1 370.8 296.5 384.6 284.5 394.5C272.5 404.4 255.8 418.1 247.5 425C239.3 431.9 224.6 444 215 452C205.4 459.9 191.2 471.6 183.5 478C175.8 484.4 160.3 497.2 149.2 506.4C129.7 522.6 128.9 523.4 130.7 525C135.1 529.1 174.8 562 175.4 562C175.7 562 182.6 556.5 190.7 549.7C208.5 534.9 228.5 518.4 252 499C261.6 491 278.7 476.9 290 467.6C301.3 458.2 315.7 446.3 322 441.2C328.3 436 334.5 430.6 335.8 429.3L338 426.9L337.9 389.4C337.8 368.8 337.5 351.8 337.1 351.6C336.8 351.4 329.7 357 321.4 363.9Z" fill="black" fill-opacity="0.2"/>
</g>
<defs>
<filter id="filter0_dd" x="9" y="0.0995483" width="417" height="422.152" filterUnits="userSpaceOnUse" color-interpolation-filters="sRGB">
<feFlood flood-opacity="0" result="BackgroundImageFix"/>
<feColorMatrix in="SourceAlpha" type="matrix" values="0 0 0 0 0 0 0 0 0 0 0 0 0 0 0 0 0 0 127 0" result="hardAlpha"/>
<feOffset dy="4"/>
<feGaussianBlur stdDeviation="2"/>
<feComposite in2="hardAlpha" operator="out"/>
<feColorMatrix type="matrix" values="0 0 0 0 0 0 0 0 0 0 0 0 0 0 0 0 0 0 0.25 0"/>
<feBlend mode="normal" in2="BackgroundImageFix" result="effect1_dropShadow"/>
<feColorMatrix in="SourceAlpha" type="matrix" values="0 0 0 0 0 0 0 0 0 0 0 0 0 0 0 0 0 0 127 0" result="hardAlpha"/>
<feOffset dy="4"/>
<feGaussianBlur stdDeviation="2"/>
<feComposite in2="hardAlpha" operator="out"/>
<feColorMatrix type="matrix" values="0 0 0 0 0 0 0 0 0 0 0 0 0 0 0 0 0 0 0.25 0"/>
<feBlend mode="normal" in2="effect1_dropShadow" result="effect2_dropShadow"/>
<feBlend mode="normal" in="SourceGraphic" in2="effect2_dropShadow" result="shape"/>
</filter>
<filter id="filter1_d" x="0.333008" y="69" width="203.927" height="146" filterUnits="userSpaceOnUse" color-interpolation-filters="sRGB">
<feFlood flood-opacity="0" result="BackgroundImageFix"/>
<feColorMatrix in="SourceAlpha" type="matrix" values="0 0 0 0 0 0 0 0 0 0 0 0 0 0 0 0 0 0 127 0" result="hardAlpha"/>
<feOffset dy="4"/>
<feGaussianBlur stdDeviation="2"/>
<feComposite in2="hardAlpha" operator="out"/>
<feColorMatrix type="matrix" values="0 0 0 0 0 0 0 0 0 0 0 0 0 0 0 0 0 0 0.25 0"/>
<feBlend mode="normal" in2="BackgroundImageFix" result="effect1_dropShadow"/>
<feBlend mode="normal" in="SourceGraphic" in2="effect1_dropShadow" result="shape"/>
</filter>
<filter id="filter2_d" x="12.5" y="94" width="413.219" height="382.3" filterUnits="userSpaceOnUse" color-interpolation-filters="sRGB">
<feFlood flood-opacity="0" result="BackgroundImageFix"/>
<feColorMatrix in="SourceAlpha" type="matrix" values="0 0 0 0 0 0 0 0 0 0 0 0 0 0 0 0 0 0 127 0" result="hardAlpha"/>
<feOffset dy="4"/>
<feGaussianBlur stdDeviation="2"/>
<feComposite in2="hardAlpha" operator="out"/>
<feColorMatrix type="matrix" values="0 0 0 0 0 0 0 0 0 0 0 0 0 0 0 0 0 0 0.25 0"/>
<feBlend mode="normal" in2="BackgroundImageFix" result="effect1_dropShadow"/>
<feBlend mode="normal" in="SourceGraphic" in2="effect1_dropShadow" result="shape"/>
</filter>
<filter id="filter3_d" x="69" y="224.1" width="313" height="298.303" filterUnits="userSpaceOnUse" color-interpolation-filters="sRGB">
<feFlood flood-opacity="0" result="BackgroundImageFix"/>
<feColorMatrix in="SourceAlpha" type="matrix" values="0 0 0 0 0 0 0 0 0 0 0 0 0 0 0 0 0 0 127 0" result="hardAlpha"/>
<feOffset dy="4"/>
<feGaussianBlur stdDeviation="2"/>
<feComposite in2="hardAlpha" operator="out"/>
<feColorMatrix type="matrix" values="0 0 0 0 0 0 0 0 0 0 0 0 0 0 0 0 0 0 0.25 0"/>
<feBlend mode="normal" in2="BackgroundImageFix" result="effect1_dropShadow"/>
<feBlend mode="normal" in="SourceGraphic" in2="effect1_dropShadow" result="shape"/>
</filter>
<filter id="filter4_d" x="126.059" y="351.595" width="215.941" height="218.405" filterUnits="userSpaceOnUse" color-interpolation-filters="sRGB">
<feFlood flood-opacity="0" result="BackgroundImageFix"/>
<feColorMatrix in="SourceAlpha" type="matrix" values="0 0 0 0 0 0 0 0 0 0 0 0 0 0 0 0 0 0 127 0" result="hardAlpha"/>
<feOffset dy="4"/>
<feGaussianBlur stdDeviation="2"/>
<feComposite in2="hardAlpha" operator="out"/>
<feColorMatrix type="matrix" values="0 0 0 0 0 0 0 0 0 0 0 0 0 0 0 0 0 0 0.25 0"/>
<feBlend mode="normal" in2="BackgroundImageFix" result="effect1_dropShadow"/>
<feBlend mode="normal" in="SourceGraphic" in2="effect1_dropShadow" result="shape"/>
</filter>
</defs>
</svg>
